<svg xmlns="http://www.w3.org/2000/svg" viewBox="0 0 200 160" width="200" height="160">
<defs>
<linearGradient id="g1" x1="0%" y1="0%" x2="100%" y2="100%"><stop offset="0%" style="stop-color:#5cb85c"/><stop offset="100%" style="stop-color:#3d8b3d"/></linearGradient>
<linearGradient id="g2" x1="0%" y1="0%" x2="100%" y2="0%"><stop offset="0%" style="stop-color:#3a7a3a"/><stop offset="100%" style="stop-color:#2d6b2d"/></linearGradient>
<linearGradient id="g3" x1="0%" y1="0%" x2="100%" y2="0%"><stop offset="0%" style="stop-color:#4a9a4a"/><stop offset="100%" style="stop-color:#3a8a3a"/></linearGradient>
</defs>
<polygon points="100,20 180,60 100,100 20,60" fill="url(#g1)" stroke="#4a8a4a" stroke-width="1"/>
<polygon points="20,60 100,100 100,120 20,80" fill="url(#g2)" stroke="#2d6b2d" stroke-width="1"/>
<polygon points="180,60 100,100 100,120 180,80" fill="url(#g3)" stroke="#3a8a3a" stroke-width="1"/>
<polygon points="100,20 180,60 100,100 20,60" fill="none" stroke="#7dd87d" stroke-width="1.5" opacity="0.6"/>
<ellipse cx="60" cy="55" rx="8" ry="4" fill="#6dd86d" opacity="0.5"/>
<ellipse cx="140" cy="65" rx="6" ry="3" fill="#6dd86d" opacity="0.4"/>
<circle cx="70" cy="58" r="2" fill="#ffdd00" opacity="0.8"/>
<circle cx="130" cy="70" r="2" fill="#ff9999" opacity="0.8"/>
</svg>
