<svg xmlns="http://www.w3.org/2000/svg" viewBox="0 0 200 160" width="200" height="160">
<defs>
<linearGradient id="g1" x1="0%" y1="0%" x2="100%" y2="100%"><stop offset="0%" style="stop-color:#5cb85c"/><stop offset="100%" style="stop-color:#3d8b3d"/></linearGradient>
<linearGradient id="g2" x1="0%" y1="0%" x2="100%" y2="0%"><stop offset="0%" style="stop-color:#3a7a3a"/><stop offset="100%" style="stop-color:#2d6b2d"/></linearGradient>
<linearGradient id="g3" x1="0%" y1="0%" x2="100%" y2="0%"><stop offset="0%" style="stop-color:#4a9a4a"/><stop offset="100%" style="stop-color:#3a8a3a"/></linearGradient>
</defs>
<polygon points="100,20 180,60 100,100 20,60" fill="url(#g1)" stroke="#4a8a4a" stroke-width="1"/>
<polygon points="20,60 100,100 100,120 20,80" fill="url(#g2)" stroke="#2d6b2d" stroke-width="1"/>
<polygon points="180,60 100,100 100,120 180,80" fill="url(#g3)" stroke="#3a8a3a" stroke-width="1"/>
<ellipse cx="100" cy="65" rx="32" ry="18" fill="#1a8fd1"/>
<ellipse cx="100" cy="65" rx="29" ry="15" fill="#2aa8f0"/>
<ellipse cx="100" cy="65" rx="32" ry="18" fill="none" stroke="#e8e0c8" stroke-width="4"/>
<ellipse cx="95" cy="62" rx="8" ry="4" fill="none" stroke="rgba(255,255,255,0.4)" stroke-width="1"/>
<ellipse cx="108" cy="68" rx="6" ry="3" fill="none" stroke="rgba(255,255,255,0.3)" stroke-width="1"/>
<rect x="120" y="58" width="18" height="4" fill="#d4b060" rx="1"/>
<rect x="130" y="54" width="6" height="8" fill="#c09040"/>
<rect x="76" y="60" width="3" height="12" fill="#c0c0c0" rx="1"/>
<rect x="76" y="63" width="8" height="2" fill="#a0a0a0" rx="1"/>
<rect x="76" y="68" width="8" height="2" fill="#a0a0a0" rx="1"/>
<rect x="50" y="40" width="5" height="16" fill="#8B4513" rx="2"/>
<ellipse cx="52" cy="38" rx="13" ry="11" fill="#228B22"/>
<ellipse cx="52" cy="31" rx="9" ry="8" fill="#3aaa3a"/>
<rect x="138" y="44" width="5" height="14" fill="#8B4513" rx="2"/>
<ellipse cx="140" cy="42" rx="12" ry="10" fill="#228B22"/>
<rect x="99" y="58" width="2" height="20" fill="#888"/>
<ellipse cx="100" cy="58" rx="12" ry="5" fill="#e84040" opacity="0.9"/>
</svg>
