<svg xmlns="http://www.w3.org/2000/svg" viewBox="0 0 200 160" width="200" height="160">
<defs>
<linearGradient id="g1" x1="0%" y1="0%" x2="100%" y2="100%"><stop offset="0%" style="stop-color:#5cb85c"/><stop offset="100%" style="stop-color:#3d8b3d"/></linearGradient>
<linearGradient id="g2" x1="0%" y1="0%" x2="100%" y2="0%"><stop offset="0%" style="stop-color:#3a7a3a"/><stop offset="100%" style="stop-color:#2d6b2d"/></linearGradient>
<linearGradient id="g3" x1="0%" y1="0%" x2="100%" y2="0%"><stop offset="0%" style="stop-color:#4a9a4a"/><stop offset="100%" style="stop-color:#3a8a3a"/></linearGradient>
</defs>
<polygon points="100,20 180,60 100,100 20,60" fill="url(#g1)" stroke="#4a8a4a" stroke-width="1"/>
<polygon points="20,60 100,100 100,120 20,80" fill="url(#g2)" stroke="#2d6b2d" stroke-width="1"/>
<polygon points="180,60 100,100 100,120 180,80" fill="url(#g3)" stroke="#3a8a3a" stroke-width="1"/>
<ellipse cx="100" cy="82" rx="30" ry="10" fill="rgba(0,0,0,0.2)"/>
<rect x="72" y="45" width="56" height="38" fill="#e8d5b0" rx="2"/>
<polygon points="72,45 72,83 60,76 60,38" fill="#c4b090"/>
<polygon points="128,45 128,83 140,76 140,38" fill="#d4c0a0"/>
<polygon points="65,45 100,18 135,45" fill="#cc4444"/>
<polygon points="53,45 65,45 100,18 88,18" fill="#aa3333"/>
<rect x="118" y="22" width="8" height="16" fill="#996633"/>
<circle cx="122" cy="16" r="4" fill="rgba(200,200,200,0.6)"/>
<circle cx="125" cy="10" r="3" fill="rgba(200,200,200,0.4)"/>
<rect x="78" y="52" width="14" height="12" fill="#aaddff" stroke="#888" stroke-width="1" rx="1"/>
<line x1="85" y1="52" x2="85" y2="64" stroke="#888" stroke-width="0.8"/>
<line x1="78" y1="58" x2="92" y2="58" stroke="#888" stroke-width="0.8"/>
<rect x="108" y="52" width="14" height="12" fill="#aaddff" stroke="#888" stroke-width="1" rx="1"/>
<line x1="115" y1="52" x2="115" y2="64" stroke="#888" stroke-width="0.8"/>
<line x1="108" y1="58" x2="122" y2="58" stroke="#888" stroke-width="0.8"/>
<rect x="91" y="62" width="18" height="21" fill="#8B4513" rx="2"/>
<circle cx="107" cy="73" r="1.5" fill="#ffd700"/>
<rect x="52" y="50" width="4" height="14" fill="#8B4513" rx="1"/>
<ellipse cx="54" cy="48" rx="10" ry="9" fill="#228B22"/>
<ellipse cx="54" cy="43" rx="7" ry="6" fill="#3aaa3a"/>
</svg>
