<svg xmlns="http://www.w3.org/2000/svg" viewBox="0 0 200 160" width="200" height="160">
<defs>
<linearGradient id="g1" x1="0%" y1="0%" x2="100%" y2="100%"><stop offset="0%" style="stop-color:#5cb85c"/><stop offset="100%" style="stop-color:#3d8b3d"/></linearGradient>
<linearGradient id="g2" x1="0%" y1="0%" x2="100%" y2="0%"><stop offset="0%" style="stop-color:#3a7a3a"/><stop offset="100%" style="stop-color:#2d6b2d"/></linearGradient>
<linearGradient id="g3" x1="0%" y1="0%" x2="100%" y2="0%"><stop offset="0%" style="stop-color:#4a9a4a"/><stop offset="100%" style="stop-color:#3a8a3a"/></linearGradient>
</defs>
<polygon points="100,20 180,60 100,100 20,60" fill="url(#g1)" stroke="#4a8a4a" stroke-width="1"/>
<polygon points="20,60 100,100 100,120 20,80" fill="url(#g2)" stroke="#2d6b2d" stroke-width="1"/>
<polygon points="180,60 100,100 100,120 180,80" fill="url(#g3)" stroke="#3a8a3a" stroke-width="1"/>
<polygon points="65,72 85,72 75,48" fill="#e8a020" stroke="#c07010" stroke-width="1.5"/>
<polygon points="65,72 75,72 70,60" fill="#c07010"/>
<polygon points="68,72 74,72 71,63" fill="#1a1a1a"/>
<polygon points="105,68 125,68 115,46" fill="#d4501a" stroke="#a03010" stroke-width="1.5"/>
<polygon points="105,68 115,68 110,57" fill="#a03010"/>
<polygon points="108,68 114,68 111,60" fill="#1a1a1a"/>
<ellipse cx="97" cy="82" rx="15" ry="5" fill="rgba(0,0,0,0.2)"/>
<polygon points="97,60 91,80 103,80" fill="#ff4400"/>
<polygon points="97,64 92,80 100,80" fill="#ff8800"/>
<polygon points="97,68 93,80 101,80" fill="#ffcc00"/>
<circle cx="97" cy="80" r="3" fill="#ffee88"/>
<circle cx="93" cy="65" r="1.5" fill="#ffaa00" opacity="0.8"/>
<circle cx="102" cy="68" r="1" fill="#ff8800" opacity="0.7"/>
<rect x="48" y="46" width="4" height="14" fill="#8B4513" rx="1"/>
<ellipse cx="50" cy="44" rx="11" ry="10" fill="#228B22"/>
<ellipse cx="50" cy="38" rx="8" ry="7" fill="#3aaa3a"/>
<rect x="138" y="52" width="4" height="12" fill="#8B4513" rx="1"/>
<ellipse cx="140" cy="50" rx="10" ry="9" fill="#228B22"/>
</svg>
